<svg width="159" height="45" fill="none" xmlns="http://www.w3.org/2000/svg"><path d="M2.448 27.168V13.992h4.968v13.536c0 .768.384 1.152 1.152 1.152h5.256V13.992h4.968V33H8.28c-3.888 0-5.832-1.944-5.832-5.832zm21.375 0V8.16h4.968v5.832h6.192v4.32h-6.192v9.216c0 .768.384 1.152 1.152 1.152h5.4v2.7L33.183 33h-3.528c-3.888 0-5.832-1.944-5.832-5.832zm15.33-16.272V6.072h5.112v4.824h-5.112zM39.225 33V13.992h4.968V33h-4.968zm10.016-6.912V6.36h4.968v20.232c0 1.488.768 2.304 2.304 2.448v4.32c-4.848 0-7.272-2.424-7.272-7.272zm11.217-15.192V6.072h5.112v4.824h-5.112zM60.53 33V13.992h4.968V33h-4.969zm10.016-5.832V8.16h4.968v5.832h6.192v4.32h-6.192v9.216c0 .768.384 1.152 1.152 1.152h5.4v2.7L79.906 33h-3.528c-3.888 0-5.832-1.944-5.832-5.832zm13.457-12.42l.504-.756h4.284l4.392 14.688h.36l4.392-14.688h4.284l.504.756L94.767 40.2h-4.283l-.504-.756L92.14 33h-2.412l-5.724-18.252zM106.592 27.6v-7.92c0-3.6 1.8-5.4 5.4-5.4h7.056l1.44 1.08v1.44h-8.496c-1.68 0-2.52.84-2.52 2.52v8.64c0 1.68.84 2.52 2.52 2.52h8.496v1.44l-1.44 1.08h-7.056c-3.6 0-5.4-1.8-5.4-5.4zm17.709 4.32v-1.44h8.28c1.68 0 2.52-.84 2.52-2.52 0-1.68-.72-2.64-2.16-2.88l-4.32-.72c-2.88-.48-4.32-2.064-4.32-4.752 0-3.552 1.8-5.328 5.4-5.328h5.976l1.44 1.08v1.44h-7.416c-1.68 0-2.52.84-2.52 2.52 0 1.44.72 2.28 2.16 2.52l4.32.72c2.88.48 4.32 2.184 4.32 5.112 0 3.552-1.8 5.328-5.4 5.328h-6.84l-1.44-1.08zm18 0v-1.44h8.28c1.68 0 2.52-.84 2.52-2.52 0-1.68-.72-2.64-2.16-2.88l-4.32-.72c-2.88-.48-4.32-2.064-4.32-4.752 0-3.552 1.8-5.328 5.4-5.328h5.976l1.44 1.08v1.44h-7.416c-1.68 0-2.52.84-2.52 2.52 0 1.44.72 2.28 2.16 2.52l4.32.72c2.88.48 4.32 2.184 4.32 5.112 0 3.552-1.8 5.328-5.4 5.328h-6.84l-1.44-1.08z" fill="#fff"/></svg>